<svg width="491" height="120" viewBox="0 0 491 120" xmlns="http://www.w3.org/2000/svg" xmlns:xlink="http://www.w3.org/1999/xlink" fill="none" overflow="hidden"><defs><filter id="filter0_d_2382_965" color-interpolation-filters="sRGB" x="253.216" y="24.3413" width="237.377" height="59.5294" filterUnits="userSpaceOnUse" primitiveUnits="userSpaceOnUse"><feFlood flood-opacity="0" result="BackgroundImageFix"/><feColorMatrix in="SourceAlpha" result="hardAlpha" type="matrix" values="0 0 0 0 0 0 0 0 0 0 0 0 0 0 0 0 0 0 127 0 "/><feOffset dx="0" dy="2.11772"/><feGaussianBlur stdDeviation="3.84719 3.84719"/><feComposite in2="hardAlpha" operator="out" k1="0" k2="0" k3="0" k4="0"/><feColorMatrix type="matrix" values="0 0 0 0 0.217308 0 0 0 0 0.00271632 0 0 0 0 0.00271632 0 0 0 0.06 0 "/><feBlend in2="BackgroundImageFix" result="effect1_dropShadow_2382_965" mode="normal"/><feBlend in="SourceGraphic" in2="effect1_dropShadow_2382_965" result="shape" mode="normal"/></filter></defs><path d="M262.558 99.0234C262.506 98.7454 262.488 98.4848 262.488 98.2415 262.488 93.9496 268.744 93.3936 268.744 90.0921 268.744 88.7541 267.736 87.7463 266.207 87.7463 264.417 87.7463 263.479 89.4144 263.479 89.4144L262.575 88.8063C262.575 88.8063 263.687 86.5995 266.276 86.5995 268.605 86.5995 269.995 88.1112 269.995 90.0226 269.995 94.1234 263.826 94.6968 263.809 97.9461L270.186 97.9461 270.186 99.0234 262.558 99.0234ZM275.858 95.5135C275.858 93.55 277.578 92.351 277.856 92.1772 276.987 91.6038 276.344 90.8566 276.344 89.6924 276.344 88.1112 277.561 86.5995 280.028 86.5995 282.304 86.5995 283.764 87.868 283.764 89.7793 283.764 91.5169 282.409 92.9418 282.27 93.0808 283.277 93.6542 284.042 94.4361 284.042 95.7046 284.042 97.616 282.357 99.232 279.993 99.232 277.787 99.232 275.858 97.8245 275.858 95.5135ZM282.808 95.6872C282.808 94.106 280.654 93.5673 278.847 92.6985 278.464 92.9244 277.092 93.8975 277.092 95.4613 277.092 97.1121 278.516 98.1199 279.993 98.1199 281.436 98.1199 282.808 97.1294 282.808 95.6872ZM277.561 89.7098C277.561 91.2911 279.524 91.8297 281.279 92.5943 281.505 92.3857 282.548 91.2911 282.548 89.8315 282.548 88.5282 281.505 87.7116 280.028 87.7116 278.464 87.7116 277.561 88.6151 277.561 89.7098ZM297.684 97.6681 298.397 96.7472C298.397 96.7472 299.665 98.0851 301.594 98.0851 302.932 98.0851 304.027 97.2858 304.027 95.9652 304.027 92.8897 297.928 93.6716 297.928 89.8836 297.928 88.1286 299.474 86.5995 301.733 86.5995 303.853 86.5995 305 87.7811 305 87.7811L304.409 88.7889C304.409 88.7889 303.332 87.7463 301.733 87.7463 300.169 87.7463 299.161 88.7715 299.161 89.8488 299.161 92.7506 305.26 91.9166 305.26 95.9305 305.26 97.755 303.853 99.232 301.559 99.232 299.057 99.232 297.684 97.6681 297.684 97.6681ZM311.413 99.0234 311.413 86.808 318.294 86.808 318.294 87.8853 312.612 87.8853 312.612 92.3336 317.251 92.3336 317.251 93.4109 312.612 93.4109 312.612 97.9461 318.607 97.9461 318.607 99.0234 311.413 99.0234ZM324.815 99.0234 324.815 86.808 329.037 86.808C331.227 86.808 332.808 88.2328 332.808 90.4917 332.808 92.768 331.227 94.2276 329.037 94.2276L326.014 94.2276 326.014 99.0234 324.815 99.0234ZM326.014 93.1503 328.881 93.1503C330.514 93.1503 331.574 92.1599 331.574 90.4917 331.574 88.841 330.514 87.8853 328.898 87.8853L326.014 87.8853 326.014 93.1503ZM338.235 94.5925 338.235 93.5847 350.398 93.5847 350.398 94.5925 338.235 94.5925ZM356.796 99.0234C356.744 98.7454 356.727 98.4848 356.727 98.2415 356.727 93.9496 362.982 93.3936 362.982 90.0921 362.982 88.7541 361.974 87.7463 360.445 87.7463 358.655 87.7463 357.717 89.4144 357.717 89.4144L356.813 88.8063C356.813 88.8063 357.926 86.5995 360.515 86.5995 362.843 86.5995 364.233 88.1112 364.233 90.0226 364.233 94.1234 358.065 94.6968 358.047 97.9461L364.424 97.9461 364.424 99.0234 356.796 99.0234ZM378.064 92.8375C378.064 89.3275 380.827 86.5995 384.285 86.5995 387.743 86.5995 390.506 89.3275 390.506 92.8375 390.506 96.417 387.743 99.232 384.285 99.232 380.827 99.232 378.064 96.417 378.064 92.8375ZM379.315 92.8375C379.315 95.8262 381.522 98.1199 384.285 98.1199 387.03 98.1199 389.254 95.8262 389.254 92.8375 389.254 89.9183 387.03 87.7116 384.285 87.7116 381.522 87.7116 379.315 89.9183 379.315 92.8375ZM395.879 92.8375C395.879 89.2928 398.52 86.5995 402.012 86.5995 404.932 86.5995 406.409 88.1807 406.409 88.1807L405.766 89.0669C405.766 89.0669 404.341 87.7116 402.047 87.7116 399.18 87.7116 397.13 89.9357 397.13 92.8202 397.13 95.7393 399.18 98.1199 402.082 98.1199 404.549 98.1199 406.044 96.4865 406.044 96.4865L406.739 97.338C406.739 97.338 405.071 99.232 402.065 99.232 398.45 99.232 395.879 96.3996 395.879 92.8375ZM415.558 99.0234 415.558 87.8853 411.162 87.8853 411.162 86.808 421.136 86.808 421.136 87.8853 416.757 87.8853 416.757 99.0234 415.558 99.0234ZM433.404 99.0234C433.317 98.5369 433.265 98.1025 433.265 97.6855 433.265 93.0982 438.634 92.2815 438.634 90.4917 438.634 89.6229 437.939 89.258 437.296 89.258 436.115 89.258 435.454 90.5786 435.454 90.5786L433.196 89.0669C433.196 89.0669 434.342 86.391 437.574 86.391 439.607 86.391 441.814 87.5552 441.814 90.1964 441.814 94.0712 436.81 94.8184 436.723 96.417L442.005 96.417 442.005 99.0234 433.404 99.0234ZM451.902 99.232C448.375 99.232 447.228 96.3475 447.228 92.7854 447.228 89.2233 448.375 86.391 451.902 86.391 455.43 86.391 456.577 89.2233 456.577 92.7854 456.577 96.3475 455.43 99.232 451.902 99.232ZM451.902 96.4518C453.101 96.4518 453.449 94.8184 453.449 92.7854 453.449 90.7698 453.101 89.1712 451.902 89.1712 450.703 89.1712 450.356 90.7698 450.356 92.7854 450.356 94.8184 450.703 96.4518 451.902 96.4518ZM461.905 99.0234C461.818 98.5369 461.766 98.1025 461.766 97.6855 461.766 93.0982 467.135 92.2815 467.135 90.4917 467.135 89.6229 466.44 89.258 465.797 89.258 464.616 89.258 463.955 90.5786 463.955 90.5786L461.696 89.0669C461.696 89.0669 462.843 86.391 466.075 86.391 468.108 86.391 470.315 87.5552 470.315 90.1964 470.315 94.0712 465.311 94.8184 465.224 96.417L470.506 96.417 470.506 99.0234 461.905 99.0234ZM480.681 99.232C478.179 99.232 475.642 97.338 475.642 93.2893 475.642 89.9183 477.71 86.391 481.568 86.391 483.305 86.391 484.313 86.9296 484.313 86.9296L483.496 89.5361C483.496 89.5361 482.68 89.1712 481.793 89.1712 480.334 89.1712 479.5 90.0747 479.118 91.2215L479.152 91.2215C479.448 91.013 480.264 90.7871 480.855 90.7871 483.444 90.7871 484.921 92.907 484.921 95.0443 484.921 97.1468 483.375 99.232 480.681 99.232ZM480.681 96.4518C481.446 96.4518 481.932 95.7915 481.932 95.0617 481.932 94.1755 481.394 93.2372 480.056 93.2372 479.361 93.2372 478.77 93.4109 478.77 93.9844 478.77 95.4613 479.813 96.4518 480.681 96.4518Z" fill="#000000"/><g filter="url(#filter0_d_2382_965)"><mask maskUnits="userSpaceOnUse" x="260.461" y="29.6406" width="223" height="45" id="path-2-outside-1_2382_965" fill="#000000"><rect x="260.461" y="29.6406" width="223" height="45" fill="#FFFFFF"/><path d="M278.679 70.5691C278.679 71.473 278.384 72.2109 277.794 72.7828 277.204 73.3547 276.457 73.6406 275.553 73.6406L264.401 73.6406C263.497 73.6406 262.759 73.3547 262.187 72.7828 261.616 72.2109 261.33 71.473 261.33 70.5691L261.33 33.4067C261.33 32.5028 261.616 31.7649 262.187 31.193 262.759 30.6212 263.497 30.3352 264.401 30.3352L275.553 30.3352C276.457 30.3352 277.204 30.6212 277.794 31.193 278.384 31.7649 278.679 32.5028 278.679 33.4067L278.679 43.479 274.805 43.479 274.805 33.7388 265.176 33.7388 265.176 70.2371 274.805 70.2371 274.805 59.5837 278.679 59.5837 278.679 70.5691ZM303.694 70.5691C303.694 71.473 303.399 72.2109 302.809 72.7828 302.237 73.3547 301.499 73.6406 300.595 73.6406L288.475 73.6406C287.571 73.6406 286.833 73.3547 286.261 72.7828 285.689 72.2109 285.404 71.473 285.404 70.5691L285.404 33.4067C285.404 32.5028 285.689 31.7649 286.261 31.193 286.833 30.6212 287.571 30.3352 288.475 30.3352L300.595 30.3352C301.499 30.3352 302.237 30.6212 302.809 31.193 303.399 31.7649 303.694 32.5028 303.694 33.4067L303.694 70.5691ZM299.848 70.2371 299.848 33.7388 289.25 33.7388 289.25 70.2371 299.848 70.2371ZM328.488 73.6406 325.831 73.6406 314.265 41.7911 314.265 73.6406 310.64 73.6406 310.64 30.3352 313.517 30.3352 324.863 61.6313 324.863 30.3352 328.488 30.3352 328.488 73.6406ZM349.379 33.7388 339.279 33.7388 339.279 50.1755 348.577 50.1755 348.577 53.6344 339.279 53.6344 339.279 73.6406 335.433 73.6406 335.433 30.3352 349.379 30.3352 349.379 33.7388ZM368.915 73.6406 354.692 73.6406 354.692 30.3352 368.749 30.3352 368.749 33.7388 358.539 33.7388 358.539 49.8987 367.836 49.8987 367.836 53.3576 358.539 53.3576 358.539 70.2371 368.915 70.2371 368.915 73.6406ZM393.377 73.6406 389.337 73.6406 381.284 50.4522 381.81 49.6774 388.672 49.6774 388.672 33.7388 378.794 33.7388 378.794 73.6406 374.948 73.6406 374.948 30.3352 389.447 30.3352C390.351 30.3352 391.089 30.6212 391.661 31.193 392.233 31.7649 392.519 32.5028 392.519 33.4067L392.519 49.8434C392.519 51.928 391.117 52.9702 388.313 52.9702 388.036 52.9702 387.63 52.961 387.095 52.9426 386.56 52.9057 386.173 52.8872 385.933 52.8872 388.423 59.7866 390.905 66.7044 393.377 73.6406ZM413.355 73.6406 399.132 73.6406 399.132 30.3352 413.189 30.3352 413.189 33.7388 402.978 33.7388 402.978 49.8987 412.276 49.8987 412.276 53.3576 402.978 53.3576 402.978 70.2371 413.355 70.2371 413.355 73.6406ZM437.235 73.6406 434.579 73.6406 423.012 41.7911 423.012 73.6406 419.387 73.6406 419.387 30.3352 422.265 30.3352 433.61 61.6313 433.61 30.3352 437.235 30.3352 437.235 73.6406ZM461.531 70.5691C461.531 71.473 461.235 72.2109 460.645 72.7828 460.055 73.3547 459.308 73.6406 458.404 73.6406L447.252 73.6406C446.348 73.6406 445.611 73.3547 445.039 72.7828 444.467 72.2109 444.181 71.473 444.181 70.5691L444.181 33.4067C444.181 32.5028 444.467 31.7649 445.039 31.193 445.611 30.6212 446.348 30.3352 447.252 30.3352L458.404 30.3352C459.308 30.3352 460.055 30.6212 460.645 31.193 461.235 31.7649 461.531 32.5028 461.531 33.4067L461.531 43.479 457.657 43.479 457.657 33.7388 448.027 33.7388 448.027 70.2371 457.657 70.2371 457.657 59.5837 461.531 59.5837 461.531 70.5691ZM482.478 73.6406 468.255 73.6406 468.255 30.3352 482.312 30.3352 482.312 33.7388 472.101 33.7388 472.101 49.8987 481.399 49.8987 481.399 53.3576 472.101 53.3576 472.101 70.2371 482.478 70.2371 482.478 73.6406Z"/></mask><path d="M278.679 70.5691C278.679 71.473 278.384 72.2109 277.794 72.7828 277.204 73.3547 276.457 73.6406 275.553 73.6406L264.401 73.6406C263.497 73.6406 262.759 73.3547 262.187 72.7828 261.616 72.2109 261.33 71.473 261.33 70.5691L261.33 33.4067C261.33 32.5028 261.616 31.7649 262.187 31.193 262.759 30.6212 263.497 30.3352 264.401 30.3352L275.553 30.3352C276.457 30.3352 277.204 30.6212 277.794 31.193 278.384 31.7649 278.679 32.5028 278.679 33.4067L278.679 43.479 274.805 43.479 274.805 33.7388 265.176 33.7388 265.176 70.2371 274.805 70.2371 274.805 59.5837 278.679 59.5837 278.679 70.5691ZM303.694 70.5691C303.694 71.473 303.399 72.2109 302.809 72.7828 302.237 73.3547 301.499 73.6406 300.595 73.6406L288.475 73.6406C287.571 73.6406 286.833 73.3547 286.261 72.7828 285.689 72.2109 285.404 71.473 285.404 70.5691L285.404 33.4067C285.404 32.5028 285.689 31.7649 286.261 31.193 286.833 30.6212 287.571 30.3352 288.475 30.3352L300.595 30.3352C301.499 30.3352 302.237 30.6212 302.809 31.193 303.399 31.7649 303.694 32.5028 303.694 33.4067L303.694 70.5691ZM299.848 70.2371 299.848 33.7388 289.25 33.7388 289.25 70.2371 299.848 70.2371ZM328.488 73.6406 325.831 73.6406 314.265 41.7911 314.265 73.6406 310.64 73.6406 310.64 30.3352 313.517 30.3352 324.863 61.6313 324.863 30.3352 328.488 30.3352 328.488 73.6406ZM349.379 33.7388 339.279 33.7388 339.279 50.1755 348.577 50.1755 348.577 53.6344 339.279 53.6344 339.279 73.6406 335.433 73.6406 335.433 30.3352 349.379 30.3352 349.379 33.7388ZM368.915 73.6406 354.692 73.6406 354.692 30.3352 368.749 30.3352 368.749 33.7388 358.539 33.7388 358.539 49.8987 367.836 49.8987 367.836 53.3576 358.539 53.3576 358.539 70.2371 368.915 70.2371 368.915 73.6406ZM393.377 73.6406 389.337 73.6406 381.284 50.4522 381.81 49.6774 388.672 49.6774 388.672 33.7388 378.794 33.7388 378.794 73.6406 374.948 73.6406 374.948 30.3352 389.447 30.3352C390.351 30.3352 391.089 30.6212 391.661 31.193 392.233 31.7649 392.519 32.5028 392.519 33.4067L392.519 49.8434C392.519 51.928 391.117 52.9702 388.313 52.9702 388.036 52.9702 387.63 52.961 387.095 52.9426 386.56 52.9057 386.173 52.8872 385.933 52.8872 388.423 59.7866 390.905 66.7044 393.377 73.6406ZM413.355 73.6406 399.132 73.6406 399.132 30.3352 413.189 30.3352 413.189 33.7388 402.978 33.7388 402.978 49.8987 412.276 49.8987 412.276 53.3576 402.978 53.3576 402.978 70.2371 413.355 70.2371 413.355 73.6406ZM437.235 73.6406 434.579 73.6406 423.012 41.7911 423.012 73.6406 419.387 73.6406 419.387 30.3352 422.265 30.3352 433.61 61.6313 433.61 30.3352 437.235 30.3352 437.235 73.6406ZM461.531 70.5691C461.531 71.473 461.235 72.2109 460.645 72.7828 460.055 73.3547 459.308 73.6406 458.404 73.6406L447.252 73.6406C446.348 73.6406 445.611 73.3547 445.039 72.7828 444.467 72.2109 444.181 71.473 444.181 70.5691L444.181 33.4067C444.181 32.5028 444.467 31.7649 445.039 31.193 445.611 30.6212 446.348 30.3352 447.252 30.3352L458.404 30.3352C459.308 30.3352 460.055 30.6212 460.645 31.193 461.235 31.7649 461.531 32.5028 461.531 33.4067L461.531 43.479 457.657 43.479 457.657 33.7388 448.027 33.7388 448.027 70.2371 457.657 70.2371 457.657 59.5837 461.531 59.5837 461.531 70.5691ZM482.478 73.6406 468.255 73.6406 468.255 30.3352 482.312 30.3352 482.312 33.7388 472.101 33.7388 472.101 49.8987 481.399 49.8987 481.399 53.3576 472.101 53.3576 472.101 70.2371 482.478 70.2371 482.478 73.6406Z" fill="#000000"/><path d="M278.679 43.479 278.679 43.8979 279.098 43.8979 279.098 43.479 278.679 43.479ZM274.805 43.479 274.387 43.479 274.387 43.8979 274.805 43.8979 274.805 43.479ZM274.805 33.7388 275.224 33.7388 275.224 33.3199 274.805 33.3199 274.805 33.7388ZM265.176 33.7388 265.176 33.3199 264.757 33.3199 264.757 33.7388 265.176 33.7388ZM265.176 70.2371 264.757 70.2371 264.757 70.6559 265.176 70.6559 265.176 70.2371ZM274.805 70.2371 274.805 70.6559 275.224 70.6559 275.224 70.2371 274.805 70.2371ZM274.805 59.5837 274.805 59.1648 274.387 59.1648 274.387 59.5837 274.805 59.5837ZM278.679 59.5837 279.098 59.5837 279.098 59.1648 278.679 59.1648 278.679 59.5837ZM278.679 70.5691 278.261 70.5691C278.261 71.3722 278.003 71.9973 277.503 72.482L277.794 72.7828 278.085 73.0836C278.766 72.4246 279.098 71.5739 279.098 70.5691L278.679 70.5691ZM277.794 72.7828 277.503 72.482C276.998 72.9703 276.36 73.2218 275.553 73.2218L275.553 73.6406 275.553 74.0595C276.553 74.0595 277.409 73.7391 278.085 73.0836L277.794 72.7828ZM275.553 73.6406 275.553 73.2218 264.401 73.2218 264.401 73.6406 264.401 74.0595 275.553 74.0595 275.553 73.6406ZM264.401 73.6406 264.401 73.2218C263.594 73.2218 262.967 72.9704 262.484 72.4867L262.187 72.7828 261.891 73.079C262.551 73.739 263.4 74.0595 264.401 74.0595L264.401 73.6406ZM262.187 72.7828 262.484 72.4867C262 72.0029 261.748 71.3763 261.748 70.5691L261.33 70.5691 260.911 70.5691C260.911 71.5698 261.231 72.419 261.891 73.079L262.187 72.7828ZM261.33 70.5691 261.748 70.5691 261.748 33.4067 261.33 33.4067 260.911 33.4067 260.911 70.5691 261.33 70.5691ZM261.33 33.4067 261.748 33.4067C261.748 32.5996 262 31.9729 262.484 31.4892L262.187 31.193 261.891 30.8969C261.231 31.5568 260.911 32.406 260.911 33.4067L261.33 33.4067ZM262.187 31.193 262.484 31.4892C262.967 31.0054 263.594 30.754 264.401 30.754L264.401 30.3352 264.401 29.9164C263.4 29.9164 262.551 30.2369 261.891 30.8969L262.187 31.193ZM264.401 30.3352 264.401 30.754 275.553 30.754 275.553 30.3352 275.553 29.9164 264.401 29.9164 264.401 30.3352ZM275.553 30.3352 275.553 30.754C276.36 30.754 276.998 31.0055 277.503 31.4938L277.794 31.193 278.085 30.8922C277.409 30.2368 276.553 29.9164 275.553 29.9164L275.553 30.3352ZM277.794 31.193 277.503 31.4938C278.003 31.9785 278.261 32.6037 278.261 33.4067L278.679 33.4067 279.098 33.4067C279.098 32.4019 278.766 31.5513 278.085 30.8922L277.794 31.193ZM278.679 33.4067 278.261 33.4067 278.261 43.479 278.679 43.479 279.098 43.479 279.098 33.4067 278.679 33.4067ZM278.679 43.479 278.679 43.0602 274.805 43.0602 274.805 43.479 274.805 43.8979 278.679 43.8979 278.679 43.479ZM274.805 43.479 275.224 43.479 275.224 33.7388 274.805 33.7388 274.387 33.7388 274.387 43.479 274.805 43.479ZM274.805 33.7388 274.805 33.3199 265.176 33.3199 265.176 33.7388 265.176 34.1576 274.805 34.1576 274.805 33.7388ZM265.176 33.7388 264.757 33.7388 264.757 70.2371 265.176 70.2371 265.595 70.2371 265.595 33.7388 265.176 33.7388ZM265.176 70.2371 265.176 70.6559 274.805 70.6559 274.805 70.2371 274.805 69.8182 265.176 69.8182 265.176 70.2371ZM274.805 70.2371 275.224 70.2371 275.224 59.5837 274.805 59.5837 274.387 59.5837 274.387 70.2371 274.805 70.2371ZM274.805 59.5837 274.805 60.0025 278.679 60.0025 278.679 59.5837 278.679 59.1648 274.805 59.1648 274.805 59.5837ZM278.679 59.5837 278.261 59.5837 278.261 70.5691 278.679 70.5691 279.098 70.5691 279.098 59.5837 278.679 59.5837ZM302.809 72.7828 302.517 72.482 302.513 72.4867 302.809 72.7828ZM302.809 31.193 302.513 31.4892 302.517 31.4938 302.809 31.193ZM299.848 70.2371 299.848 70.6559 300.267 70.6559 300.267 70.2371 299.848 70.2371ZM299.848 33.7388 300.267 33.7388 300.267 33.3199 299.848 33.3199 299.848 33.7388ZM289.25 33.7388 289.25 33.3199 288.831 33.3199 288.831 33.7388 289.25 33.7388ZM289.25 70.2371 288.831 70.2371 288.831 70.6559 289.25 70.6559 289.25 70.2371ZM303.694 70.5691 303.275 70.5691C303.275 71.3722 303.018 71.9973 302.517 72.482L302.809 72.7828 303.1 73.0836C303.78 72.4246 304.113 71.5739 304.113 70.5691L303.694 70.5691ZM302.809 72.7828 302.513 72.4867C302.029 72.9704 301.402 73.2218 300.595 73.2218L300.595 73.6406 300.595 74.0595C301.596 74.0595 302.445 73.739 303.105 73.079L302.809 72.7828ZM300.595 73.6406 300.595 73.2218 288.475 73.2218 288.475 73.6406 288.475 74.0595 300.595 74.0595 300.595 73.6406ZM288.475 73.6406 288.475 73.2218C287.668 73.2218 287.041 72.9704 286.558 72.4867L286.261 72.7828 285.965 73.079C286.625 73.739 287.474 74.0595 288.475 74.0595L288.475 73.6406ZM286.261 72.7828 286.558 72.4867C286.074 72.0029 285.822 71.3763 285.822 70.5691L285.404 70.5691 284.985 70.5691C284.985 71.5698 285.305 72.419 285.965 73.079L286.261 72.7828ZM285.404 70.5691 285.822 70.5691 285.822 33.4067 285.404 33.4067 284.985 33.4067 284.985 70.5691 285.404 70.5691ZM285.404 33.4067 285.822 33.4067C285.822 32.5996 286.074 31.9729 286.558 31.4892L286.261 31.193 285.965 30.8969C285.305 31.5568 284.985 32.406 284.985 33.4067L285.404 33.4067ZM286.261 31.193 286.558 31.4892C287.041 31.0054 287.668 30.754 288.475 30.754L288.475 30.3352 288.475 29.9164C287.474 29.9164 286.625 30.2369 285.965 30.8969L286.261 31.193ZM288.475 30.3352 288.475 30.754 300.595 30.754 300.595 30.3352 300.595 29.9164 288.475 29.9164 288.475 30.3352ZM300.595 30.3352 300.595 30.754C301.402 30.754 302.029 31.0054 302.513 31.4892L302.809 31.193 303.105 30.8969C302.445 30.2369 301.596 29.9164 300.595 29.9164L300.595 30.3352ZM302.809 31.193 302.517 31.4938C303.018 31.9785 303.275 32.6037 303.275 33.4067L303.694 33.4067 304.113 33.4067C304.113 32.4019 303.78 31.5513 303.1 30.8922L302.809 31.193ZM303.694 33.4067 303.275 33.4067 303.275 70.5691 303.694 70.5691 304.113 70.5691 304.113 33.4067 303.694 33.4067ZM299.848 70.2371 300.267 70.2371 300.267 33.7388 299.848 33.7388 299.429 33.7388 299.429 70.2371 299.848 70.2371ZM299.848 33.7388 299.848 33.3199 289.25 33.3199 289.25 33.7388 289.25 34.1576 299.848 34.1576 299.848 33.7388ZM289.25 33.7388 288.831 33.7388 288.831 70.2371 289.25 70.2371 289.669 70.2371 289.669 33.7388 289.25 33.7388ZM289.25 70.2371 289.25 70.6559 299.848 70.6559 299.848 70.2371 299.848 69.8182 289.25 69.8182 289.25 70.2371ZM328.488 73.6406 328.488 74.0595 328.906 74.0595 328.906 73.6406 328.488 73.6406ZM325.831 73.6406 325.437 73.7836 325.538 74.0595 325.831 74.0595 325.831 73.6406ZM314.265 41.7911 314.658 41.6481 313.846 41.7911 314.265 41.7911ZM314.265 73.6406 314.265 74.0595 314.683 74.0595 314.683 73.6406 314.265 73.6406ZM310.64 73.6406 310.221 73.6406 310.221 74.0595 310.64 74.0595 310.64 73.6406ZM310.64 30.3352 310.64 29.9164 310.221 29.9164 310.221 30.3352 310.64 30.3352ZM313.517 30.3352 313.911 30.1925 313.811 29.9164 313.517 29.9164 313.517 30.3352ZM324.863 61.6313 324.469 61.7741 325.281 61.6313 324.863 61.6313ZM324.863 30.3352 324.863 29.9164 324.444 29.9164 324.444 30.3352 324.863 30.3352ZM328.488 30.3352 328.906 30.3352 328.906 29.9164 328.488 29.9164 328.488 30.3352ZM328.488 73.6406 328.488 73.2218 325.831 73.2218 325.831 73.6406 325.831 74.0595 328.488 74.0595 328.488 73.6406ZM325.831 73.6406 326.225 73.4977 314.658 41.6481 314.265 41.7911 313.871 41.9341 325.437 73.7836 325.831 73.6406ZM314.265 41.7911 313.846 41.7911 313.846 73.6406 314.265 73.6406 314.683 73.6406 314.683 41.7911 314.265 41.7911ZM314.265 73.6406 314.265 73.2218 310.64 73.2218 310.64 73.6406 310.64 74.0595 314.265 74.0595 314.265 73.6406ZM310.64 73.6406 311.059 73.6406 311.059 30.3352 310.64 30.3352 310.221 30.3352 310.221 73.6406 310.64 73.6406ZM310.64 30.3352 310.64 30.754 313.517 30.754 313.517 30.3352 313.517 29.9164 310.64 29.9164 310.64 30.3352ZM313.517 30.3352 313.124 30.478 324.469 61.7741 324.863 61.6313 325.256 61.4886 313.911 30.1925 313.517 30.3352ZM324.863 61.6313 325.281 61.6313 325.281 30.3352 324.863 30.3352 324.444 30.3352 324.444 61.6313 324.863 61.6313ZM324.863 30.3352 324.863 30.754 328.488 30.754 328.488 30.3352 328.488 29.9164 324.863 29.9164 324.863 30.3352ZM328.488 30.3352 328.069 30.3352 328.069 73.6406 328.488 73.6406 328.906 73.6406 328.906 30.3352 328.488 30.3352ZM349.379 33.7388 349.379 34.1576 349.798 34.1576 349.798 33.7388 349.379 33.7388ZM339.279 33.7388 339.279 33.3199 338.861 33.3199 338.861 33.7388 339.279 33.7388ZM339.279 50.1755 338.861 50.1755 338.861 50.5943 339.279 50.5943 339.279 50.1755ZM348.577 50.1755 348.996 50.1755 348.996 49.7566 348.577 49.7566 348.577 50.1755ZM348.577 53.6344 348.577 54.0532 348.996 54.0532 348.996 53.6344 348.577 53.6344ZM339.279 53.6344 339.279 53.2155 338.861 53.2155 338.861 53.6344 339.279 53.6344ZM339.279 73.6406 339.279 74.0595 339.698 74.0595 339.698 73.6406 339.279 73.6406ZM335.433 73.6406 335.014 73.6406 335.014 74.0595 335.433 74.0595 335.433 73.6406ZM335.433 30.3352 335.433 29.9164 335.014 29.9164 335.014 30.3352 335.433 30.3352ZM349.379 30.3352 349.798 30.3352 349.798 29.9164 349.379 29.9164 349.379 30.3352ZM349.379 33.7388 349.379 33.3199 339.279 33.3199 339.279 33.7388 339.279 34.1576 349.379 34.1576 349.379 33.7388ZM339.279 33.7388 338.861 33.7388 338.861 50.1755 339.279 50.1755 339.698 50.1755 339.698 33.7388 339.279 33.7388ZM339.279 50.1755 339.279 50.5943 348.577 50.5943 348.577 50.1755 348.577 49.7566 339.279 49.7566 339.279 50.1755ZM348.577 50.1755 348.158 50.1755 348.158 53.6344 348.577 53.6344 348.996 53.6344 348.996 50.1755 348.577 50.1755ZM348.577 53.6344 348.577 53.2155 339.279 53.2155 339.279 53.6344 339.279 54.0532 348.577 54.0532 348.577 53.6344ZM339.279 53.6344 338.861 53.6344 338.861 73.6406 339.279 73.6406 339.698 73.6406 339.698 53.6344 339.279 53.6344ZM339.279 73.6406 339.279 73.2218 335.433 73.2218 335.433 73.6406 335.433 74.0595 339.279 74.0595 339.279 73.6406ZM335.433 73.6406 335.852 73.6406 335.852 30.3352 335.433 30.3352 335.014 30.3352 335.014 73.6406 335.433 73.6406ZM335.433 30.3352 335.433 30.754 349.379 30.754 349.379 30.3352 349.379 29.9164 335.433 29.9164 335.433 30.3352ZM349.379 30.3352 348.96 30.3352 348.96 33.7388 349.379 33.7388 349.798 33.7388 349.798 30.3352 349.379 30.3352ZM368.915 73.6406 368.915 74.0595 369.334 74.0595 369.334 73.6406 368.915 73.6406ZM354.692 73.6406 354.273 73.6406 354.273 74.0595 354.692 74.0595 354.692 73.6406ZM354.692 30.3352 354.692 29.9164 354.273 29.9164 354.273 30.3352 354.692 30.3352ZM368.749 30.3352 369.168 30.3352 369.168 29.9164 368.749 29.9164 368.749 30.3352ZM368.749 33.7388 368.749 34.1576 369.168 34.1576 369.168 33.7388 368.749 33.7388ZM358.538 33.7388 358.538 33.3199 358.12 33.3199 358.12 33.7388 358.538 33.7388ZM358.538 49.8987 358.12 49.8987 358.12 50.3176 358.538 50.3176 358.538 49.8987ZM367.836 49.8987 368.255 49.8987 368.255 49.4799 367.836 49.4799 367.836 49.8987ZM367.836 53.3576 367.836 53.7765 368.255 53.7765 368.255 53.3576 367.836 53.3576ZM358.538 53.3576 358.538 52.9388 358.12 52.9388 358.12 53.3576 358.538 53.3576ZM358.538 70.2371 358.12 70.2371 358.12 70.6559 358.538 70.6559 358.538 70.2371ZM368.915 70.2371 369.334 70.2371 369.334 69.8182 368.915 69.8182 368.915 70.2371ZM368.915 73.6406 368.915 73.2218 354.692 73.2218 354.692 73.6406 354.692 74.0595 368.915 74.0595 368.915 73.6406ZM354.692 73.6406 355.111 73.6406 355.111 30.3352 354.692 30.3352 354.273 30.3352 354.273 73.6406 354.692 73.6406ZM354.692 30.3352 354.692 30.754 368.749 30.754 368.749 30.3352 368.749 29.9164 354.692 29.9164 354.692 30.3352ZM368.749 30.3352 368.33 30.3352 368.33 33.7388 368.749 33.7388 369.168 33.7388 369.168 30.3352 368.749 30.3352ZM368.749 33.7388 368.749 33.3199 358.538 33.3199 358.538 33.7388 358.538 34.1576 368.749 34.1576 368.749 33.7388ZM358.538 33.7388 358.12 33.7388 358.12 49.8987 358.538 49.8987 358.957 49.8987 358.957 33.7388 358.538 33.7388ZM358.538 49.8987 358.538 50.3176 367.836 50.3176 367.836 49.8987 367.836 49.4799 358.538 49.4799 358.538 49.8987ZM367.836 49.8987 367.417 49.8987 367.417 53.3576 367.836 53.3576 368.255 53.3576 368.255 49.8987 367.836 49.8987ZM367.836 53.3576 367.836 52.9388 358.538 52.9388 358.538 53.3576 358.538 53.7765 367.836 53.7765 367.836 53.3576ZM358.538 53.3576 358.12 53.3576 358.12 70.2371 358.538 70.2371 358.957 70.2371 358.957 53.3576 358.538 53.3576ZM358.538 70.2371 358.538 70.6559 368.915 70.6559 368.915 70.2371 368.915 69.8182 358.538 69.8182 358.538 70.2371ZM368.915 70.2371 368.496 70.2371 368.496 73.6406 368.915 73.6406 369.334 73.6406 369.334 70.2371 368.915 70.2371ZM393.377 73.6406 393.377 74.0595 393.97 74.0595 393.771 73.5 393.377 73.6406ZM389.337 73.6406 388.941 73.778 389.039 74.0595 389.337 74.0595 389.337 73.6406ZM381.284 50.4522 380.938 50.217 380.82 50.391 380.889 50.5896 381.284 50.4522ZM381.81 49.6774 381.81 49.2585 381.588 49.2585 381.463 49.4422 381.81 49.6774ZM388.672 49.6774 388.672 50.0962 389.091 50.0962 389.091 49.6774 388.672 49.6774ZM388.672 33.7388 389.091 33.7388 389.091 33.3199 388.672 33.3199 388.672 33.7388ZM378.794 33.7388 378.794 33.3199 378.375 33.3199 378.375 33.7388 378.794 33.7388ZM378.794 73.6406 378.794 74.0595 379.213 74.0595 379.213 73.6406 378.794 73.6406ZM374.948 73.6406 374.529 73.6406 374.529 74.0595 374.948 74.0595 374.948 73.6406ZM374.948 30.3352 374.948 29.9164 374.529 29.9164 374.529 30.3352 374.948 30.3352ZM387.095 52.9426 387.066 53.3604 387.074 53.3609 387.081 53.3612 387.095 52.9426ZM385.933 52.8872 385.933 52.4684 385.337 52.4684 385.539 53.0294 385.933 52.8872ZM393.377 73.6406 393.377 73.2218 389.337 73.2218 389.337 73.6406 389.337 74.0595 393.377 74.0595 393.377 73.6406ZM389.337 73.6406 389.732 73.5032 381.68 50.3148 381.284 50.4522 380.889 50.5896 388.941 73.778 389.337 73.6406ZM381.284 50.4522 381.631 50.6873 382.157 49.9126 381.81 49.6774 381.463 49.4422 380.938 50.217 381.284 50.4522ZM381.81 49.6774 381.81 50.0962 388.672 50.0962 388.672 49.6774 388.672 49.2585 381.81 49.2585 381.81 49.6774ZM388.672 49.6774 389.091 49.6774 389.091 33.7388 388.672 33.7388 388.254 33.7388 388.254 49.6774 388.672 49.6774ZM388.672 33.7388 388.672 33.3199 378.794 33.3199 378.794 33.7388 378.794 34.1576 388.672 34.1576 388.672 33.7388ZM378.794 33.7388 378.375 33.7388 378.375 73.6406 378.794 73.6406 379.213 73.6406 379.213 33.7388 378.794 33.7388ZM378.794 73.6406 378.794 73.2218 374.948 73.2218 374.948 73.6406 374.948 74.0595 378.794 74.0595 378.794 73.6406ZM374.948 73.6406 375.366 73.6406 375.366 30.3352 374.948 30.3352 374.529 30.3352 374.529 73.6406 374.948 73.6406ZM374.948 30.3352 374.948 30.754 389.447 30.754 389.447 30.3352 389.447 29.9164 374.948 29.9164 374.948 30.3352ZM389.447 30.3352 389.447 30.754C390.254 30.754 390.881 31.0054 391.365 31.4892L391.661 31.193 391.957 30.8969C391.297 30.2369 390.448 29.9164 389.447 29.9164L389.447 30.3352ZM391.661 31.193 391.365 31.4892C391.849 31.9729 392.1 32.5996 392.1 33.4067L392.519 33.4067 392.938 33.4067C392.938 32.406 392.617 31.5568 391.957 30.8969L391.661 31.193ZM392.519 33.4067 392.1 33.4067 392.1 49.8434 392.519 49.8434 392.938 49.8434 392.938 33.4067 392.519 33.4067ZM392.519 49.8434 392.1 49.8434C392.1 50.7821 391.791 51.4261 391.217 51.8524 390.621 52.2961 389.675 52.5514 388.313 52.5514L388.313 52.9702 388.313 53.3891C389.754 53.3891 390.912 53.1233 391.717 52.5247 392.546 51.9087 392.938 50.9893 392.938 49.8434L392.519 49.8434ZM388.313 52.9702 388.313 52.5514C388.043 52.5514 387.643 52.5424 387.11 52.524L387.095 52.9426 387.081 53.3612C387.617 53.3797 388.029 53.3891 388.313 53.3891L388.313 52.9702ZM387.095 52.9426 387.124 52.5247C386.588 52.4878 386.188 52.4684 385.933 52.4684L385.933 52.8872 385.933 53.3061C386.157 53.3061 386.532 53.3236 387.066 53.3604L387.095 52.9426ZM385.933 52.8872 385.539 53.0294C388.029 59.9283 390.51 66.8455 392.982 73.7812L393.377 73.6406 393.771 73.5C391.299 66.5632 388.818 59.6449 386.327 52.745L385.933 52.8872ZM413.355 73.6406 413.355 74.0595 413.774 74.0595 413.774 73.6406 413.355 73.6406ZM399.132 73.6406 398.713 73.6406 398.713 74.0595 399.132 74.0595 399.132 73.6406ZM399.132 30.3352 399.132 29.9164 398.713 29.9164 398.713 30.3352 399.132 30.3352ZM413.189 30.3352 413.608 30.3352 413.608 29.9164 413.189 29.9164 413.189 30.3352ZM413.189 33.7388 413.189 34.1576 413.608 34.1576 413.608 33.7388 413.189 33.7388ZM402.978 33.7388 402.978 33.3199 402.56 33.3199 402.56 33.7388 402.978 33.7388ZM402.978 49.8987 402.56 49.8987 402.56 50.3176 402.978 50.3176 402.978 49.8987ZM412.276 49.8987 412.695 49.8987 412.695 49.4799 412.276 49.4799 412.276 49.8987ZM412.276 53.3576 412.276 53.7765 412.695 53.7765 412.695 53.3576 412.276 53.3576ZM402.978 53.3576 402.978 52.9388 402.56 52.9388 402.56 53.3576 402.978 53.3576ZM402.978 70.2371 402.56 70.2371 402.56 70.6559 402.978 70.6559 402.978 70.2371ZM413.355 70.2371 413.774 70.2371 413.774 69.8182 413.355 69.8182 413.355 70.2371ZM413.355 73.6406 413.355 73.2218 399.132 73.2218 399.132 73.6406 399.132 74.0595 413.355 74.0595 413.355 73.6406ZM399.132 73.6406 399.551 73.6406 399.551 30.3352 399.132 30.3352 398.713 30.3352 398.713 73.6406 399.132 73.6406ZM399.132 30.3352 399.132 30.754 413.189 30.754 413.189 30.3352 413.189 29.9164 399.132 29.9164 399.132 30.3352ZM413.189 30.3352 412.77 30.3352 412.77 33.7388 413.189 33.7388 413.608 33.7388 413.608 30.3352 413.189 30.3352ZM413.189 33.7388 413.189 33.3199 402.978 33.3199 402.978 33.7388 402.978 34.1576 413.189 34.1576 413.189 33.7388ZM402.978 33.7388 402.56 33.7388 402.56 49.8987 402.978 49.8987 403.397 49.8987 403.397 33.7388 402.978 33.7388ZM402.978 49.8987 402.978 50.3176 412.276 50.3176 412.276 49.8987 412.276 49.4799 402.978 49.4799 402.978 49.8987ZM412.276 49.8987 411.857 49.8987 411.857 53.3576 412.276 53.3576 412.695 53.3576 412.695 49.8987 412.276 49.8987ZM412.276 53.3576 412.276 52.9388 402.978 52.9388 402.978 53.3576 402.978 53.7765 412.276 53.7765 412.276 53.3576ZM402.978 53.3576 402.56 53.3576 402.56 70.2371 402.978 70.2371 403.397 70.2371 403.397 53.3576 402.978 53.3576ZM402.978 70.2371 402.978 70.6559 413.355 70.6559 413.355 70.2371 413.355 69.8182 402.978 69.8182 402.978 70.2371ZM413.355 70.2371 412.936 70.2371 412.936 73.6406 413.355 73.6406 413.774 73.6406 413.774 70.2371 413.355 70.2371ZM437.235 73.6406 437.235 74.0595 437.654 74.0595 437.654 73.6406 437.235 73.6406ZM434.579 73.6406 434.185 73.7836 434.285 74.0595 434.579 74.0595 434.579 73.6406ZM423.012 41.7911 423.406 41.6481 422.594 41.7911 423.012 41.7911ZM423.012 73.6406 423.012 74.0595 423.431 74.0595 423.431 73.6406 423.012 73.6406ZM419.387 73.6406 418.969 73.6406 418.969 74.0595 419.387 74.0595 419.387 73.6406ZM419.387 30.3352 419.387 29.9164 418.969 29.9164 418.969 30.3352 419.387 30.3352ZM422.265 30.3352 422.659 30.1925 422.559 29.9164 422.265 29.9164 422.265 30.3352ZM433.61 61.6313 433.217 61.7741 434.029 61.6313 433.61 61.6313ZM433.61 30.3352 433.61 29.9164 433.192 29.9164 433.192 30.3352 433.61 30.3352ZM437.235 30.3352 437.654 30.3352 437.654 29.9164 437.235 29.9164 437.235 30.3352ZM437.235 73.6406 437.235 73.2218 434.579 73.2218 434.579 73.6406 434.579 74.0595 437.235 74.0595 437.235 73.6406ZM434.579 73.6406 434.973 73.4977 423.406 41.6481 423.012 41.7911 422.619 41.9341 434.185 73.7836 434.579 73.6406ZM423.012 41.7911 422.594 41.7911 422.594 73.6406 423.012 73.6406 423.431 73.6406 423.431 41.7911 423.012 41.7911ZM423.012 73.6406 423.012 73.2218 419.387 73.2218 419.387 73.6406 419.387 74.0595 423.012 74.0595 423.012 73.6406ZM419.387 73.6406 419.806 73.6406 419.806 30.3352 419.387 30.3352 418.969 30.3352 418.969 73.6406 419.387 73.6406ZM419.387 30.3352 419.387 30.754 422.265 30.754 422.265 30.3352 422.265 29.9164 419.387 29.9164 419.387 30.3352ZM422.265 30.3352 421.871 30.478 433.217 61.7741 433.61 61.6313 434.004 61.4886 422.659 30.1925 422.265 30.3352ZM433.61 61.6313 434.029 61.6313 434.029 30.3352 433.61 30.3352 433.192 30.3352 433.192 61.6313 433.61 61.6313ZM433.61 30.3352 433.61 30.754 437.235 30.754 437.235 30.3352 437.235 29.9164 433.61 29.9164 433.61 30.3352ZM437.235 30.3352 436.817 30.3352 436.817 73.6406 437.235 73.6406 437.654 73.6406 437.654 30.3352 437.235 30.3352ZM461.531 43.479 461.531 43.8979 461.949 43.8979 461.949 43.479 461.531 43.479ZM457.657 43.479 457.238 43.479 457.238 43.8979 457.657 43.8979 457.657 43.479ZM457.657 33.7388 458.076 33.7388 458.076 33.3199 457.657 33.3199 457.657 33.7388ZM448.027 33.7388 448.027 33.3199 447.608 33.3199 447.608 33.7388 448.027 33.7388ZM448.027 70.2371 447.608 70.2371 447.608 70.6559 448.027 70.6559 448.027 70.2371ZM457.657 70.2371 457.657 70.6559 458.076 70.6559 458.076 70.2371 457.657 70.2371ZM457.657 59.5837 457.657 59.1648 457.238 59.1648 457.238 59.5837 457.657 59.5837ZM461.531 59.5837 461.949 59.5837 461.949 59.1648 461.531 59.1648 461.531 59.5837ZM461.531 70.5691 461.112 70.5691C461.112 71.3722 460.854 71.9973 460.354 72.482L460.645 72.7828 460.937 73.0836C461.617 72.4246 461.949 71.5739 461.949 70.5691L461.531 70.5691ZM460.645 72.7828 460.354 72.482C459.85 72.9703 459.211 73.2218 458.404 73.2218L458.404 73.6406 458.404 74.0595C459.405 74.0595 460.26 73.7391 460.937 73.0836L460.645 72.7828ZM458.404 73.6406 458.404 73.2218 447.252 73.2218 447.252 73.6406 447.252 74.0595 458.404 74.0595 458.404 73.6406ZM447.252 73.6406 447.252 73.2218C446.445 73.2218 445.819 72.9704 445.335 72.4867L445.039 72.7828 444.742 73.079C445.402 73.739 446.252 74.0595 447.252 74.0595L447.252 73.6406ZM445.039 72.7828 445.335 72.4867C444.851 72.0029 444.6 71.3763 444.6 70.5691L444.181 70.5691 443.762 70.5691C443.762 71.5698 444.082 72.419 444.742 73.079L445.039 72.7828ZM444.181 70.5691 444.6 70.5691 444.6 33.4067 444.181 33.4067 443.762 33.4067 443.762 70.5691 444.181 70.5691ZM444.181 33.4067 444.6 33.4067C444.6 32.5996 444.851 31.9729 445.335 31.4892L445.039 31.193 444.742 30.8969C444.082 31.5568 443.762 32.406 443.762 33.4067L444.181 33.4067ZM445.039 31.193 445.335 31.4892C445.819 31.0054 446.445 30.754 447.252 30.754L447.252 30.3352 447.252 29.9164C446.252 29.9164 445.402 30.2369 444.742 30.8969L445.039 31.193ZM447.252 30.3352 447.252 30.754 458.404 30.754 458.404 30.3352 458.404 29.9164 447.252 29.9164 447.252 30.3352ZM458.404 30.3352 458.404 30.754C459.211 30.754 459.85 31.0055 460.354 31.4938L460.645 31.193 460.937 30.8922C460.26 30.2368 459.405 29.9164 458.404 29.9164L458.404 30.3352ZM460.645 31.193 460.354 31.4938C460.854 31.9785 461.112 32.6037 461.112 33.4067L461.531 33.4067 461.949 33.4067C461.949 32.4019 461.617 31.5513 460.937 30.8922L460.645 31.193ZM461.531 33.4067 461.112 33.4067 461.112 43.479 461.531 43.479 461.949 43.479 461.949 33.4067 461.531 33.4067ZM461.531 43.479 461.531 43.0602 457.657 43.0602 457.657 43.479 457.657 43.8979 461.531 43.8979 461.531 43.479ZM457.657 43.479 458.076 43.479 458.076 33.7388 457.657 33.7388 457.238 33.7388 457.238 43.479 457.657 43.479ZM457.657 33.7388 457.657 33.3199 448.027 33.3199 448.027 33.7388 448.027 34.1576 457.657 34.1576 457.657 33.7388ZM448.027 33.7388 447.608 33.7388 447.608 70.2371 448.027 70.2371 448.446 70.2371 448.446 33.7388 448.027 33.7388ZM448.027 70.2371 448.027 70.6559 457.657 70.6559 457.657 70.2371 457.657 69.8182 448.027 69.8182 448.027 70.2371ZM457.657 70.2371 458.076 70.2371 458.076 59.5837 457.657 59.5837 457.238 59.5837 457.238 70.2371 457.657 70.2371ZM457.657 59.5837 457.657 60.0025 461.531 60.0025 461.531 59.5837 461.531 59.1648 457.657 59.1648 457.657 59.5837ZM461.531 59.5837 461.112 59.5837 461.112 70.5691 461.531 70.5691 461.949 70.5691 461.949 59.5837 461.531 59.5837ZM482.478 73.6406 482.478 74.0595 482.897 74.0595 482.897 73.6406 482.478 73.6406ZM468.255 73.6406 467.836 73.6406 467.836 74.0595 468.255 74.0595 468.255 73.6406ZM468.255 30.3352 468.255 29.9164 467.836 29.9164 467.836 30.3352 468.255 30.3352ZM482.312 30.3352 482.731 30.3352 482.731 29.9164 482.312 29.9164 482.312 30.3352ZM482.312 33.7388 482.312 34.1576 482.731 34.1576 482.731 33.7388 482.312 33.7388ZM472.101 33.7388 472.101 33.3199 471.682 33.3199 471.682 33.7388 472.101 33.7388ZM472.101 49.8987 471.682 49.8987 471.682 50.3176 472.101 50.3176 472.101 49.8987ZM481.399 49.8987 481.817 49.8987 481.817 49.4799 481.399 49.4799 481.399 49.8987ZM481.399 53.3576 481.399 53.7765 481.817 53.7765 481.817 53.3576 481.399 53.3576ZM472.101 53.3576 472.101 52.9388 471.682 52.9388 471.682 53.3576 472.101 53.3576ZM472.101 70.2371 471.682 70.2371 471.682 70.6559 472.101 70.6559 472.101 70.2371ZM482.478 70.2371 482.897 70.2371 482.897 69.8182 482.478 69.8182 482.478 70.2371ZM482.478 73.6406 482.478 73.2218 468.255 73.2218 468.255 73.6406 468.255 74.0595 482.478 74.0595 482.478 73.6406ZM468.255 73.6406 468.674 73.6406 468.674 30.3352 468.255 30.3352 467.836 30.3352 467.836 73.6406 468.255 73.6406ZM468.255 30.3352 468.255 30.754 482.312 30.754 482.312 30.3352 482.312 29.9164 468.255 29.9164 468.255 30.3352ZM482.312 30.3352 481.893 30.3352 481.893 33.7388 482.312 33.7388 482.731 33.7388 482.731 30.3352 482.312 30.3352ZM482.312 33.7388 482.312 33.3199 472.101 33.3199 472.101 33.7388 472.101 34.1576 482.312 34.1576 482.312 33.7388ZM472.101 33.7388 471.682 33.7388 471.682 49.8987 472.101 49.8987 472.52 49.8987 472.52 33.7388 472.101 33.7388ZM472.101 49.8987 472.101 50.3176 481.399 50.3176 481.399 49.8987 481.399 49.4799 472.101 49.4799 472.101 49.8987ZM481.399 49.8987 480.98 49.8987 480.98 53.3576 481.399 53.3576 481.817 53.3576 481.817 49.8987 481.399 49.8987ZM481.399 53.3576 481.399 52.9388 472.101 52.9388 472.101 53.3576 472.101 53.7765 481.399 53.7765 481.399 53.3576ZM472.101 53.3576 471.682 53.3576 471.682 70.2371 472.101 70.2371 472.52 70.2371 472.52 53.3576 472.101 53.3576ZM472.101 70.2371 472.101 70.6559 482.478 70.6559 482.478 70.2371 482.478 69.8182 472.101 69.8182 472.101 70.2371ZM482.478 70.2371 482.059 70.2371 482.059 73.6406 482.478 73.6406 482.897 73.6406 482.897 70.2371 482.478 70.2371Z" fill="#000000" mask="url(#path-2-outside-1_2382_965)"/></g><path d="M33.4543 100.164 4.49507 100.164 4.49507 30.3318 33.1866 30.3318 33.1866 39.5684 14.9365 39.5684 14.9365 59.9603 30.6431 59.9603 30.6431 69.0184 14.9365 69.0184 14.9365 90.9275 33.4543 90.9275 33.4543 100.164ZM74.372 68.3491C74.372 72.6922 72.245 74.8638 67.9911 74.8638L51.0797 74.8638 51.0797 100.164 40.6383 100.164 40.6383 30.3318 67.9911 30.3318C72.245 30.3318 74.372 32.4736 74.372 36.7572L74.372 68.3491ZM63.8414 65.8949 63.8414 39.3007 51.0797 39.3007 51.0797 65.8949 63.8414 65.8949ZM117.164 100.164 106.812 100.164 104.714 86.9115 91.6404 86.9115 89.5432 100.164 79.2357 100.164 79.2357 99.9856 92.7559 30.2425 103.733 30.2425 117.164 100.164ZM103.242 77.9427 98.1551 46.4401 93.0237 77.9427 103.242 77.9427ZM165.221 100.164 155.181 100.164 155.181 65.7164C155.181 63.9018 155.389 61.3733 155.806 58.1308L146.792 93.7832 141.482 93.7832 132.424 58.1308C132.841 61.4328 133.049 63.9613 133.049 65.7164L133.049 100.164 123.009 100.164 123.009 30.3318 132.87 30.3318 143.847 68.9292C143.966 69.3456 144.056 70.4017 144.115 72.0973 144.115 71.3536 144.204 70.2976 144.383 68.9292L155.36 30.3318 165.221 30.3318 165.221 100.164ZM182.846 100.164 172.807 100.164 172.807 89.3657 182.846 89.3657 182.846 100.164ZM225.861 100.164 215.509 100.164 213.412 86.9115 200.338 86.9115 198.241 100.164 187.933 100.164 187.933 99.9856 201.453 30.2425 212.43 30.2425 225.861 100.164ZM211.939 77.9427 206.853 46.4401 201.721 77.9427 211.939 77.9427ZM242.326 100.164 231.885 100.164 231.885 30.3318 242.326 30.3318 242.326 100.164Z" fill="#000000"/></svg>