<svg width="1920" height="1080" viewBox="0 0 1920 1080" xmlns="http://www.w3.org/2000/svg" xmlns:xlink="http://www.w3.org/1999/xlink" fill="none" overflow="hidden"><defs><filter id="filter0_f_1053_4712" color-interpolation-filters="sRGB" x="1004.43" y="-674.859" width="1476.02" height="816.034" filterUnits="userSpaceOnUse" primitiveUnits="userSpaceOnUse"><feFlood flood-opacity="0" result="BackgroundImageFix"/><feBlend in="SourceGraphic" in2="BackgroundImageFix" result="shape" mode="normal"/><feGaussianBlur result="effect1_foregroundBlur_1053_4712" stdDeviation="100.000000 100.000000"/></filter><filter id="filter1_f_1053_4712" color-interpolation-filters="sRGB" x="-1153.65" y="-314.123" width="2045.45" height="814.775" filterUnits="userSpaceOnUse" primitiveUnits="userSpaceOnUse"><feFlood flood-opacity="0" result="BackgroundImageFix"/><feBlend in="SourceGraphic" in2="BackgroundImageFix" result="shape" mode="normal"/><feGaussianBlur result="effect1_foregroundBlur_1053_4712" stdDeviation="110.000000 110.000000"/></filter><filter id="filter2_f_1053_4712" color-interpolation-filters="sRGB" x="-1327.11" y="-187.242" width="2017.66" height="918.332" filterUnits="userSpaceOnUse" primitiveUnits="userSpaceOnUse"><feFlood flood-opacity="0" result="BackgroundImageFix"/><feBlend in="SourceGraphic" in2="BackgroundImageFix" result="shape" mode="normal"/><feGaussianBlur result="effect1_foregroundBlur_1053_4712" stdDeviation="110.000000 110.000000"/></filter><filter id="filter3_f_1053_4712" color-interpolation-filters="sRGB" x="-759.828" y="-496.228" width="3598.19" height="1781.9" filterUnits="userSpaceOnUse" primitiveUnits="userSpaceOnUse"><feFlood flood-opacity="0" result="BackgroundImageFix"/><feBlend in="SourceGraphic" in2="BackgroundImageFix" result="shape" mode="normal"/><feGaussianBlur result="effect1_foregroundBlur_1053_4712" stdDeviation="160.000000 160.000000"/></filter><filter id="filter4_f_1053_4712" color-interpolation-filters="sRGB" x="1463.29" y="-330.232" width="1064.25" height="1036.43" filterUnits="userSpaceOnUse" primitiveUnits="userSpaceOnUse"><feFlood flood-opacity="0" result="BackgroundImageFix"/><feBlend in="SourceGraphic" in2="BackgroundImageFix" result="shape" mode="normal"/><feGaussianBlur result="effect1_foregroundBlur_1053_4712" stdDeviation="126.150000 126.150000"/></filter><linearGradient x1="1284.5" y1="-714.963" x2="-1263.51" y2="411.09" gradientUnits="userSpaceOnUse" id="paint0_linear_1053_4712"><stop offset="0" stop-color="#FF9975"/><stop offset="0.5625" stop-color="#D595FF"/><stop offset="1" stop-color="#949BFF"/></linearGradient><clipPath id="clip0_1053_4712"><rect x="0" y="0" width="1920" height="1260" fill="#FFFFFF" transform="matrix(1 0 0 1 0 -52)"/></clipPath><clipPath id="clip1_1053_4712"><rect x="0" y="0" width="3655" height="1428" fill="#FFFFFF" transform="translate(-1109 -244)"/></clipPath></defs><g clip-path="url(#clip0_1053_4712)"><rect x="0" y="0" width="1920" height="1260" fill="#FFFFFF" fill-opacity="0.2" transform="matrix(1 0 0 1 0 -52)"/><rect x="0" y="0" width="1920" height="1260" fill="#FFFFFF" fill-opacity="0.4" transform="matrix(1 0 0 1 0 -52)"/><g clip-path="url(#clip1_1053_4712)"><rect x="0" y="-584" width="1920" height="1768" fill="url(#paint0_linear_1053_4712)" fill-opacity="0.4"/><g filter="url(#filter0_f_1053_4712)"><ellipse cx="536.854" cy="210.904" rx="536.854" ry="210.904" fill="#FF732C" transform="matrix(0.999036 0.0438876 0.199634 0.979871 1164 -497.062)"/></g><g filter="url(#filter1_f_1053_4712)"><ellipse cx="816.659" cy="111.826" rx="816.659" ry="111.826" fill="#FF4B9B" fill-opacity="0.6" transform="matrix(0.981184 -0.193073 0.425197 0.905101 -979.766 149.726)"/></g><g filter="url(#filter2_f_1053_4712)"><ellipse cx="816.659" cy="111.826" rx="816.659" ry="111.826" fill="#FF4B9B" fill-opacity="0.2" transform="matrix(0.965926 0.258819 -0.0169125 0.999857 -1105.22 -51.2529)"/></g><g filter="url(#filter3_f_1053_4712)"><ellipse cx="1470.75" cy="591.689" rx="1470.75" ry="591.689" fill="#FFFFFF" fill-opacity="0.5" transform="matrix(0.998786 -0.0492611 0.289943 0.957044 -601.258 -99.0986)"/></g><g filter="url(#filter4_f_1053_4712)"><ellipse cx="286.46" cy="258.661" rx="286.46" ry="258.661" fill="#FF8114" fill-opacity="0.27" transform="matrix(-0.866025 -0.5 -0.5 0.866025 2372.82 107.207)"/></g></g></g></svg>